<?xml version="1.0" encoding="UTF-8" standalone="no"?>
<!-- Generator: Adobe Illustrator 16.0.0, SVG Export Plug-In . SVG Version: 6.00 Build 0)  -->

<svg
   xmlns:dc="http://purl.org/dc/elements/1.1/"
   xmlns:cc="http://creativecommons.org/ns#"
   xmlns:rdf="http://www.w3.org/1999/02/22-rdf-syntax-ns#"
   xmlns:svg="http://www.w3.org/2000/svg"
   xmlns="http://www.w3.org/2000/svg"
   xmlns:sodipodi="http://sodipodi.sourceforge.net/DTD/sodipodi-0.dtd"
   xmlns:inkscape="http://www.inkscape.org/namespaces/inkscape"
   version="1.1"
   id="Capa_1"
   x="0px"
   y="0px"
   width="533.333px"
   height="533.333px"
   viewBox="0 0 533.333 533.333"
   style="enable-background:new 0 0 533.333 533.333;"
   xml:space="preserve"
   sodipodi:docname="spade.svg"
   inkscape:version="0.92.2 (5c3e80d, 2017-08-06)"><metadata
     id="metadata924"><rdf:RDF><cc:Work
         rdf:about=""><dc:format>image/svg+xml</dc:format><dc:type
           rdf:resource="http://purl.org/dc/dcmitype/StillImage" /></cc:Work></rdf:RDF></metadata><defs
     id="defs922" /><sodipodi:namedview
     pagecolor="#ffffff"
     bordercolor="#666666"
     borderopacity="1"
     objecttolerance="10"
     gridtolerance="10"
     guidetolerance="10"
     inkscape:pageopacity="0"
     inkscape:pageshadow="2"
     inkscape:window-width="1920"
     inkscape:window-height="1027"
     id="namedview920"
     showgrid="false"
     inkscape:zoom="0.44250027"
     inkscape:cx="266.6665"
     inkscape:cy="266.6665"
     inkscape:window-x="-8"
     inkscape:window-y="-8"
     inkscape:window-maximized="1"
     inkscape:current-layer="Capa_1" /><g
     id="g887"><path
       d="M425.817,181.328C325.001,106.402,290.262,46.423,266.668,0.001l0,0c-0.002,0-0.002-0.001-0.002-0.001v0.001   c-23.592,46.422-58.333,106.402-159.149,181.327c-171.893,127.753-10.092,306.077,132.166,207.93   c-9.269,60.9-40.901,105.298-73.025,124.416v19.659h100.008h100.008v-19.656c-32.126-19.118-63.756-63.517-73.026-124.419   C435.905,487.407,597.709,309.081,425.817,181.328z"
       id="path885" /></g><g
     id="g889" /><g
     id="g891" /><g
     id="g893" /><g
     id="g895" /><g
     id="g897" /><g
     id="g899" /><g
     id="g901" /><g
     id="g903" /><g
     id="g905" /><g
     id="g907" /><g
     id="g909" /><g
     id="g911" /><g
     id="g913" /><g
     id="g915" /><g
     id="g917" /><path
     style="fill:#88aa00;fill-opacity:1;stroke:#030000;stroke-width:1.70825994;stroke-miterlimit:4;stroke-dasharray:none;stroke-dashoffset:0;stroke-opacity:1"
     d="m 168.13549,524.61509 c 0,-6.79075 2.46954,-10.26783 18.85926,-26.55365 19.74043,-19.61529 30.68057,-36.02188 40.67001,-60.99154 6.09499,-15.23508 13.5366,-43.70709 12.32847,-47.16946 -0.36924,-1.05821 -5.6795,1.19876 -11.80058,5.01548 -15.84991,9.88302 -35.96406,16.94297 -57.05935,20.02751 C 87.97652,427.10256 17.971618,353.92812 38.256232,276.05023 47.549968,240.36916 67.790677,214.81364 119.35145,173.66097 184.06997,122.00659 222.91353,79.423881 252.81991,27.344616 259.95745,14.915245 266.06675,4.4515003 266.39613,4.0918497 c 0.3294,-0.3596506 5.92734,8.9645413 12.43988,20.7204263 27.9132,50.386598 68.82841,95.619774 132.50003,146.483414 40.73089,32.5376 54.74887,46.57856 67.83092,67.94218 11.93572,19.4916 17.20239,36.29032 18.40363,58.70086 1.68784,31.48859 -6.60063,55.08331 -27.337,77.82002 -39.88203,43.72924 -97.84778,52.59294 -155.60395,23.79389 -12.21025,-6.08843 -22.19332,-10.46158 -22.1846,-9.71814 0.009,0.74343 2.04371,9.81057 4.52221,20.14918 8.43835,35.19883 28.42331,70.34706 52.10515,91.63906 6.4032,5.75704 12.54916,10.46734 13.65766,10.46734 1.10852,0 2.01548,4.57627 2.01548,10.16949 v 10.16948 h -98.30502 -98.30503 z"
     id="path1469"
     inkscape:connector-curvature="0" /></svg>