<?xml version="1.0" encoding="UTF-8" standalone="no"?>
<svg
   xmlns:dc="http://purl.org/dc/elements/1.1/"
   xmlns:cc="http://creativecommons.org/ns#"
   xmlns:rdf="http://www.w3.org/1999/02/22-rdf-syntax-ns#"
   xmlns:svg="http://www.w3.org/2000/svg"
   xmlns="http://www.w3.org/2000/svg"
   xmlns:sodipodi="http://sodipodi.sourceforge.net/DTD/sodipodi-0.dtd"
   xmlns:inkscape="http://www.inkscape.org/namespaces/inkscape"
   id="svg4642"
   version="1.1"
   viewBox="0 0 29.419392 49.02248"
   height="49.02248mm"
   width="29.419392mm"
   sodipodi:docname="UI1.svg"
   inkscape:version="0.92.2 (5c3e80d, 2017-08-06)">
  <sodipodi:namedview
     pagecolor="#ffffff"
     bordercolor="#666666"
     borderopacity="1"
     objecttolerance="10"
     gridtolerance="10"
     guidetolerance="10"
     inkscape:pageopacity="0"
     inkscape:pageshadow="2"
     inkscape:window-width="1920"
     inkscape:window-height="1027"
     id="namedview4547"
     showgrid="false"
     inkscape:zoom="3.3638608"
     inkscape:cx="72.216903"
     inkscape:cy="84.523946"
     inkscape:window-x="-8"
     inkscape:window-y="-8"
     inkscape:window-maximized="1"
     inkscape:current-layer="svg4642" />
  <defs
     id="defs4636" />
  <metadata
     id="metadata4639">
    <rdf:RDF>
      <cc:Work
         rdf:about="">
        <dc:format>image/svg+xml</dc:format>
        <dc:type
           rdf:resource="http://purl.org/dc/dcmitype/StillImage" />
        <dc:title></dc:title>
      </cc:Work>
    </rdf:RDF>
  </metadata>
  <g
     id="layer1"
     transform="translate(-82.335317,-16.816291)">
    <text
       id="text5197"
       y="24.857143"
       x="86.178574"
       style="font-style:normal;font-weight:normal;font-size:10.58333302px;line-height:1.25;font-family:sans-serif;letter-spacing:0px;word-spacing:0px;fill:#000000;fill-opacity:1;stroke:none;stroke-width:0.26458332"
       xml:space="preserve"><tspan
         style="stroke-width:0.26458332"
         y="24.857143"
         x="86.178574"
         id="tspan5195">Play</tspan></text>
    <text
       id="text5201"
       y="65.678574"
       x="81.642853"
       style="font-style:normal;font-weight:normal;font-size:10.58333302px;line-height:1.25;font-family:sans-serif;letter-spacing:0px;word-spacing:0px;fill:#000000;fill-opacity:1;stroke:none;stroke-width:0.26458332"
       xml:space="preserve"><tspan
         style="stroke-width:0.26458332"
         y="65.678574"
         x="81.642853"
         id="tspan5199">Stand</tspan></text>
    <text
       id="text5205"
       y="45.267857"
       x="95.62059"
       style="font-style:normal;font-weight:normal;font-size:10.58333302px;line-height:1.25;font-family:sans-serif;letter-spacing:0px;word-spacing:0px;fill:#000000;fill-opacity:1;stroke:none;stroke-width:0.26458332"
       xml:space="preserve"><tspan
         style="text-align:center;text-anchor:middle;stroke-width:0.26458332"
         y="45.267857"
         x="95.62059"
         id="tspan5203">Hit</tspan></text>
  </g>
  <path
     style="fill:#88aa00;fill-opacity:1;stroke:#030000;stroke-width:0.22471367;stroke-miterlimit:4;stroke-dasharray:none;stroke-dashoffset:0;stroke-opacity:1"
     d="M 25.96053,93.058382 V 78.640426 h 1.783665 1.783665 v 5.648271 5.648272 h 7.283298 7.283298 v -5.648272 -5.648271 h 1.783664 1.783665 V 93.058382 107.47634 H 45.87812 44.094456 v -7.13466 -7.134659 H 36.811158 29.52786 v 7.134659 7.13466 H 27.744195 25.96053 Z"
     id="path5092"
     inkscape:connector-curvature="0"
     transform="scale(0.26458334)" />
  <path
     style="fill:#88aa00;fill-opacity:1;stroke:#030000;stroke-width:0.22471367;stroke-miterlimit:4;stroke-dasharray:none;stroke-dashoffset:0;stroke-opacity:1"
     d="M 55.688276,96.625712 V 85.775085 h 1.635026 1.635027 v 10.850627 10.850628 h -1.635027 -1.635026 z"
     id="path5094"
     inkscape:connector-curvature="0"
     transform="scale(0.26458334)" />
  <path
     style="fill:#88aa00;fill-opacity:1;stroke:#030000;stroke-width:0.22471367;stroke-miterlimit:4;stroke-dasharray:none;stroke-dashoffset:0;stroke-opacity:1"
     d="m 55.390999,80.126813 v -1.783665 h 1.932303 1.932304 v 1.783665 1.783665 h -1.932304 -1.932303 z"
     id="path5096"
     inkscape:connector-curvature="0"
     transform="scale(0.26458334)" />
  <path
     style="fill:#88aa00;fill-opacity:1;stroke:#030000;stroke-width:0.22471367;stroke-miterlimit:4;stroke-dasharray:none;stroke-dashoffset:0;stroke-opacity:1"
     d="m 70.787403,107.49885 c -1.350857,-0.43919 -2.593128,-1.49574 -3.289078,-2.79736 -0.624479,-1.16795 -0.667672,-1.65692 -0.759335,-8.596014 L 66.6418,88.747859 h -1.16624 -1.166237 v -1.486387 -1.486387 h 1.18911 1.189109 v -3.121414 -3.121413 h 1.635026 1.635027 v 3.121413 3.121414 h 3.864606 3.864607 v 1.486387 1.486387 h -3.864607 -3.864606 l 0.0097,5.128036 c 0.0053,2.82042 0.130238,6.063932 0.277529,7.207805 0.23124,1.79582 0.397567,2.19571 1.218243,2.92898 0.896444,0.80098 1.070676,0.84174 3.066842,0.71758 1.164021,-0.0724 2.350509,-0.23422 2.636638,-0.35961 0.456494,-0.20004 0.520236,-0.0459 0.520236,1.25841 0,1.13683 -0.122347,1.53615 -0.520236,1.69796 -0.823479,0.33489 -5.490934,0.46061 -6.37917,0.17183 z"
     id="path5098"
     inkscape:connector-curvature="0"
     transform="scale(0.26458334)" />
  <path
     style="fill:#88aa00;fill-opacity:1;stroke:#030000;stroke-width:0.22471367;stroke-miterlimit:4;stroke-dasharray:none;stroke-dashoffset:0;stroke-opacity:1"
     d="m 80.398436,36.218094 c 2.141301,-4.725243 2.936644,-6.59591 2.936644,-6.907062 0,-0.182013 -1.872848,-4.796212 -4.161884,-10.253777 -2.289037,-5.457566 -4.161885,-10.002538 -4.161885,-10.0999392 0,-0.097401 0.78905,-0.1770932 1.753444,-0.1770932 h 1.753444 l 1.333948,3.1957324 c 0.733672,1.757653 2.234732,5.36762 3.33569,8.022148 1.100957,2.654528 2.086134,4.773427 2.189282,4.708666 0.103148,-0.06476 1.659066,-3.673789 3.457594,-8.020058 l 3.270052,-7.9023095 1.709346,-0.00209 c 0.94014,-0.00115 1.704461,0.098242 1.698492,0.220869 -0.006,0.122627 -2.783434,6.7110385 -6.172145,14.6409155 l -6.161294,14.417956 -1.848205,0.08835 -1.848205,0.08834 z"
     id="path5100"
     inkscape:connector-curvature="0"
     transform="scale(0.26458334)" />
  <path
     style="fill:#88aa00;fill-opacity:1;stroke:#030000;stroke-width:0.22471367;stroke-miterlimit:4;stroke-dasharray:none;stroke-dashoffset:0;stroke-opacity:1"
     d="m 55.836915,30.224135 c -3.266216,-1.487547 -4.759636,-5.175424 -3.542428,-8.747732 1.093251,-3.208515 4.41171,-4.699501 11.492359,-5.163523 l 2.900696,-0.190094 v -1.010547 c 0,-1.3899 -0.718133,-2.654194 -1.863016,-3.27989 -1.403125,-0.766831 -6.523414,-0.68588 -9.06193,0.143268 l -1.857984,0.606867 V 10.851068 9.1196527 l 1.709345,-0.381742 c 0.94014,-0.2099582 3.247756,-0.3866611 5.128036,-0.3926732 4.000365,-0.012791 5.91973,0.5090356 7.365018,2.0023605 1.851309,1.912841 1.955802,2.492478 2.088851,11.587152 l 0.120683,8.24945 h -1.814501 -1.814502 v -1.040471 c 0,-0.572259 -0.06224,-1.040471 -0.138314,-1.040471 -0.07607,0 -0.778391,0.406008 -1.560707,0.902241 -2.80628,1.780058 -6.762237,2.306837 -9.151606,1.218636 z m 7.793112,-3.307625 c 0.715002,-0.31628 1.695443,-0.856632 2.178759,-1.200783 0.87859,-0.625611 0.878756,-0.626324 0.878756,-3.76763 v -3.1419 l -2.833055,0.20796 c -6.529351,0.479285 -8.77852,1.926434 -8.387386,5.396569 0.181962,1.614361 1.031999,2.632414 2.556029,3.06125 1.445202,0.406654 4.005204,0.153038 5.606897,-0.555466 z"
     id="path5102"
     inkscape:connector-curvature="0"
     transform="scale(0.26458334)" />
  <path
     style="fill:#88aa00;fill-opacity:1;stroke:#030000;stroke-width:0.22471367;stroke-miterlimit:4;stroke-dasharray:none;stroke-dashoffset:0;stroke-opacity:1"
     d="M 42.310791,15.171688 V 0.1591763 h 1.783665 1.783664 V 15.171688 30.1842 h -1.783664 -1.783665 z"
     id="path5104"
     inkscape:connector-curvature="0"
     transform="scale(0.26458334)" />
  <path
     style="fill:#88aa00;fill-opacity:1;stroke:#030000;stroke-width:0.22471367;stroke-miterlimit:4;stroke-dasharray:none;stroke-dashoffset:0;stroke-opacity:1"
     d="M 18.528594,15.766243 V 1.3482861 l 4.384843,0.00225 c 6.828705,0.0035 9.984504,0.7658598 12.156413,2.9366878 1.608704,1.6079027 2.038585,2.8374461 2.038585,5.8307511 0,2.410399 -0.08743,2.833343 -0.882363,4.268548 -1.940088,3.502708 -4.563523,4.776602 -10.339861,5.020856 l -3.790287,0.160273 v 5.308276 5.308276 h -1.783665 -1.783665 z m 11.092888,0.133478 C 31.334451,15.415292 32.964244,13.620239 33.35797,11.784356 34.040737,8.6007256 32.618944,5.7877825 29.918003,4.9785609 29.256729,4.7804385 27.22624,4.6183382 25.405805,4.6183382 h -3.309881 v 5.9909698 5.99097 l 3.195732,-0.189917 c 1.757653,-0.104455 3.706075,-0.334242 4.329826,-0.51064 z"
     id="path5106"
     inkscape:connector-curvature="0"
     transform="scale(0.26458334)" />
  <path
     style="fill:#88aa00;fill-opacity:1;stroke:#030000;stroke-width:0.22471367;stroke-miterlimit:4;stroke-dasharray:none;stroke-dashoffset:0;stroke-opacity:1"
     d="m 7.0834118,184.87246 c -1.6526183,-0.26398 -4.2726949,-1.00073 -5.6339636,-1.58424 l -1.35205669,-0.57955 v -2.27641 -2.2764 l 0.66887428,0.49167 c 1.55530481,1.14326 5.01267651,2.58919 7.21741661,3.01843 5.8479056,1.13852 10.5449116,-0.99507 10.5449116,-4.78996 0,-1.71278 -0.774601,-2.997 -2.233759,-3.70336 -0.707659,-0.34258 -3.069726,-0.95187 -5.249038,-1.354 -4.9578333,-0.91481 -6.406255,-1.39169 -8.0581958,-2.65304 -2.57370935,-1.96517 -3.37009875,-5.90846 -1.8210711,-9.01695 0.9855964,-1.97783 3.2496016,-3.65383 5.9076744,-4.37334 2.8340293,-0.76714 8.3432795,-0.49263 11.6773475,0.58185 l 2.452539,0.79038 v 2.2101 2.2101 l -1.412068,-0.89764 c -2.379792,-1.51281 -5.124731,-2.21068 -8.695365,-2.21068 -2.7816126,0 -3.2641763,0.0809 -4.4328284,0.7432 -1.8409976,1.04331 -2.5199624,2.06665 -2.5139946,3.78911 0.010702,3.08898 1.3317052,4.04257 7.095461,5.12199 1.962031,0.36745 4.381368,0.91928 5.376302,1.22629 3.70132,1.14214 5.513379,3.29835 5.58171,6.6418 0.0527,2.5784 -0.692885,4.28515 -2.655506,6.07888 -2.290392,2.09329 -4.200587,2.75238 -8.302506,2.86469 -1.7985284,0.0492 -3.6713764,0.0254 -4.1618842,-0.0529 z"
     id="path5108"
     inkscape:connector-curvature="0"
     transform="scale(0.26458334)" />
  <path
     style="fill:#88aa00;fill-opacity:1;stroke:#030000;stroke-width:0.22471367;stroke-miterlimit:4;stroke-dasharray:none;stroke-dashoffset:0;stroke-opacity:1"
     d="m 33.270373,184.74836 c -1.769045,-0.43782 -3.096394,-1.3952 -3.826074,-2.75966 -0.622955,-1.16488 -0.664797,-1.65084 -0.752503,-8.73972 l -0.09287,-7.50626 H 27.279728 25.96053 v -1.33775 -1.33775 h 1.337749 1.337749 v -3.12141 -3.12141 h 1.635026 1.635026 v 3.12141 3.12141 h 3.864607 3.864607 v 1.33775 1.33775 H 35.770687 31.90608 l 0.0017,6.31715 c 0.0018,6.74187 0.189151,8.06379 1.289582,9.09759 0.929425,0.87315 3.17253,1.11394 5.025907,0.53952 l 1.412067,-0.43764 v 1.56877 c 0,1.47367 -0.04956,1.57866 -0.817513,1.73183 -1.853731,0.36974 -4.457412,0.45818 -5.547407,0.18842 z"
     id="path5110"
     inkscape:connector-curvature="0"
     transform="scale(0.26458334)" />
  <path
     style="fill:#88aa00;fill-opacity:1;stroke:#030000;stroke-width:0.22471367;stroke-miterlimit:4;stroke-dasharray:none;stroke-dashoffset:0;stroke-opacity:1"
     d="m 46.604724,184.50505 c -4.138162,-1.87961 -5.25678,-7.7077 -2.08765,-10.87682 1.721665,-1.72167 4.030066,-2.46615 9.015941,-2.90772 l 3.938926,-0.34885 v -0.99148 c 0,-1.37197 -0.723302,-2.63796 -1.863016,-3.26083 -1.403125,-0.76683 -6.523414,-0.68588 -9.06193,0.14327 l -1.857985,0.60687 v -1.72786 -1.72786 l 1.560707,-0.34049 c 6.146145,-1.34085 11.602832,-0.34309 13.522399,2.47259 1.060898,1.55616 1.252291,3.26827 1.259887,11.27044 l 0.0073,7.65489 h -1.783665 -1.783665 v -1.04047 c 0,-0.57226 -0.06224,-1.04047 -0.138315,-1.04047 -0.07607,0 -0.778391,0.40601 -1.560706,0.90224 -2.813831,1.78485 -6.759376,2.30667 -9.168196,1.21255 z m 8.181011,-3.47745 c 2.66369,-1.21947 2.686206,-1.25952 2.686206,-4.7776 v -3.07534 h -1.122589 c -2.563219,0 -6.218556,0.64426 -7.690814,1.35552 -2.271933,1.09759 -3.020026,3.0269 -2.062391,5.31884 0.954442,2.2843 4.62162,2.81205 8.189588,1.17858 z"
     id="path5112"
     inkscape:connector-curvature="0"
     transform="scale(0.26458334)" />
  <path
     style="fill:#88aa00;fill-opacity:1;stroke:#030000;stroke-width:0.22471367;stroke-miterlimit:4;stroke-dasharray:none;stroke-dashoffset:0;stroke-opacity:1"
     d="m 68.17393,173.76921 v -10.70199 h 1.783665 1.783664 v 1.2034 1.20339 l 1.384102,-0.95229 c 3.268396,-2.24872 6.821168,-2.69669 9.65326,-1.21718 1.338917,0.69946 1.734692,1.10996 2.486486,2.57904 l 0.894109,1.74718 0.09501,8.42022 0.09501,8.42022 h -1.613629 -1.613629 l -0.15111,-7.65489 c -0.160506,-8.1309 -0.319086,-9.093 -1.701991,-10.32595 -0.496563,-0.44271 -1.193623,-0.61683 -2.790846,-0.69711 -1.988827,-0.1 -2.27573,-0.0315 -4.358548,1.03995 l -2.229581,1.14694 -0.07902,8.24553 -0.07902,8.24553 h -1.77897 -1.778962 z"
     id="path5114"
     inkscape:connector-curvature="0"
     transform="scale(0.26458334)" />
  <path
     style="fill:#88aa00;fill-opacity:1;stroke:#030000;stroke-width:0.22471367;stroke-miterlimit:4;stroke-dasharray:none;stroke-dashoffset:0;stroke-opacity:1"
     d="m 97.075189,184.29945 c -3.532958,-1.76055 -5.027354,-5.28221 -4.76307,-11.22455 0.123137,-2.76869 0.25039,-3.36011 1.08991,-5.06542 2.382454,-4.83945 7.177851,-6.71298 12.363981,-4.83051 l 1.94582,0.70629 v -4.71954 -4.71954 h 1.63503 1.63502 v 15.01251 15.01251 h -1.63502 -1.63503 v -1.04047 c 0,-1.21105 -0.0752,-1.23911 -1.19114,-0.44447 -3.113,2.21665 -6.646626,2.70793 -9.445501,1.31319 z m 7.106261,-2.96122 c 0.71544,-0.25162 1.80246,-0.78861 2.41559,-1.19333 l 1.11479,-0.73585 v -6.35118 -6.35118 l -0.81751,-0.32381 c -4.05217,-1.60499 -7.777703,-1.00998 -9.622626,1.53687 -1.171477,1.61717 -1.54731,3.15515 -1.520557,6.22239 0.0345,3.9558 0.960786,6.077 3.19101,7.30746 0.866879,0.47827 3.736113,0.41728 5.239303,-0.11137 z"
     id="path5116"
     inkscape:connector-curvature="0"
     transform="scale(0.26458334)" />
</svg>
